<?xml version="1.0" encoding="UTF-8" standalone="no"?>
<!-- Created with Inkscape (http://www.inkscape.org/) -->

<svg
   width="133.67563mm"
   height="34.883999mm"
   viewBox="0 0 133.67563 34.883999"
   version="1.1"
   id="svg1"
   xml:space="preserve"
   inkscape:version="1.4 (86a8ad7, 2024-10-11)"
   sodipodi:docname="Logo_V5.svg"
   inkscape:export-filename="Logo Polytecks.jpg"
   inkscape:export-xdpi="1000"
   inkscape:export-ydpi="1000"
   xmlns:inkscape="http://www.inkscape.org/namespaces/inkscape"
   xmlns:sodipodi="http://sodipodi.sourceforge.net/DTD/sodipodi-0.dtd"
   xmlns="http://www.w3.org/2000/svg"
   xmlns:svg="http://www.w3.org/2000/svg"><sodipodi:namedview
     id="namedview1"
     pagecolor="#ffffff"
     bordercolor="#000000"
     borderopacity="0.25"
     inkscape:showpageshadow="2"
     inkscape:pageopacity="0.0"
     inkscape:pagecheckerboard="0"
     inkscape:deskcolor="#d1d1d1"
     inkscape:document-units="mm"
     inkscape:zoom="1.950968"
     inkscape:cx="262.43383"
     inkscape:cy="176.06644"
     inkscape:window-width="2880"
     inkscape:window-height="1514"
     inkscape:window-x="499"
     inkscape:window-y="-11"
     inkscape:window-maximized="1"
     inkscape:current-layer="layer1" /><defs
     id="defs1" /><g
     inkscape:label="Layer 1"
     inkscape:groupmode="layer"
     id="layer1"
     transform="translate(-36.476879,-68.18645)"><g
       id="g3"><path
         style="fill:#394ba2"
         d="m 46.31401,102.79498 c -0.09227,-0.15153 -1.204875,-2.08526 -2.472447,-4.29718 -1.267572,-2.21192 -3.443178,-5.98884 -4.83468,-8.39317 -1.391502,-2.40433 -2.530004,-4.41826 -2.530004,-4.47541 0,-0.0572 1.347591,-2.43338 2.994647,-5.2805 1.647055,-2.84712 3.898681,-6.74837 5.003613,-8.66943 l 2.008966,-3.49284 10.082976,0.0215 10.082975,0.0215 2.40632,4.191 c 1.323476,2.30505 3.580041,6.22073 5.014589,8.7015 l 2.60827,4.51051 -3.241934,5.60716 c -1.783064,3.08394 -4.042597,6.99781 -5.021184,8.69749 l -1.779251,3.09034 -10.077542,0.0215 -10.077543,0.0215 z m 24.190397,-9.04306 c 2.565826,-4.42633 4.665139,-8.07463 4.665139,-8.10732 0,-0.0327 -2.090817,-3.67873 -4.64626,-8.10229 l -4.646261,-8.04284 -9.309335,-0.0215 -9.309334,-0.0215 -4.646881,8.01783 c -2.555785,4.40981 -4.646014,8.0771 -4.644953,8.14954 0.0016,0.10603 2.681088,4.7795 8.946865,15.60453 l 0.330797,0.5715 h 9.297541 9.297542 z m -20.810356,6.09364 c -1.081968,-0.21249 -2.059767,-0.97581 -2.565229,-2.00254 -0.266105,-0.54054 -0.280276,-0.61673 -0.280276,-1.50683 0,-0.91339 0.0082,-0.9541 0.318845,-1.58264 0.468293,-0.94753 1.328511,-1.65631 2.297712,-1.89322 l 0.245891,-0.0601 -0.04772,1.20533 c -0.04113,1.03891 -0.07069,1.23059 -0.214143,1.38829 -0.263006,0.28913 -0.356922,0.52628 -0.356922,0.90127 0,0.4007 0.143681,0.71766 0.458781,1.01204 0.330887,0.30913 1.084471,0.34691 1.488552,0.0746 0.762084,-0.51352 0.776947,-1.67909 0.02705,-2.12154 -0.277144,-0.16352 -0.281053,-0.17435 -0.281053,-0.77881 0,-0.33714 0.02489,-1.4123 0.05532,-2.38925 l 0.05532,-1.77627 1.680348,-0.95684 c 0.924192,-0.52626 1.680348,-0.9728 1.680348,-0.99232 0,-0.0195 -0.154496,-0.19593 -0.343324,-0.39204 -0.479909,-0.49842 -0.84205,-1.27572 -0.95293,-2.04537 l -0.09213,-0.63953 H 50.3212 47.773909 l -0.01939,0.48683 c -0.0272,0.68293 -0.211969,1.25829 -0.593799,1.84906 -0.738822,1.1431 -2.087255,1.7374 -3.50283,1.5438 -0.716201,-0.0979 -1.336536,-0.40102 -1.887666,-0.92226 -0.856656,-0.81019 -1.196058,-1.6698 -1.122815,-2.84379 0.112102,-1.79686 1.512128,-3.21117 3.280046,-3.31351 1.052332,-0.0609 2.046738,0.27857 2.662228,0.90889 l 0.30591,0.31328 -0.99719,0.53784 c -0.9449,0.50964 -1.028269,0.53818 -1.589857,0.54435 -0.693695,0.008 -1.030969,0.19208 -1.269222,0.69416 -0.290509,0.6122 0.0049,1.44323 0.601755,1.6926 0.860677,0.35961 1.700123,-0.13018 1.808112,-1.05499 l 0.04469,-0.38271 2.090004,-1.12744 2.090004,-1.12743 1.524167,0.8896 c 0.838292,0.48929 1.578513,0.91047 1.644936,0.93596 0.08802,0.0338 0.135932,-0.0485 0.176692,-0.30339 0.125568,-0.78525 0.773745,-1.70903 1.540236,-2.19512 l 0.357054,-0.22644 -1.224599,-2.15675 -1.224598,-2.15675 -0.602915,0.29927 c -0.575467,0.28565 -0.643632,0.29927 -1.497281,0.29927 -0.828487,0 -0.936024,-0.0197 -1.459907,-0.26793 -1.429047,-0.67702 -2.161863,-1.90755 -2.085625,-3.50215 0.02969,-0.62096 0.07953,-0.82852 0.312616,-1.302 1.19794,-2.43336 4.494332,-2.7464 6.0999,-0.57927 0.496271,0.66985 0.714713,1.44243 0.666665,2.35786 -0.02064,0.39318 -0.0793,0.75664 -0.130359,0.8077 -0.06734,0.0673 -0.361621,-0.0739 -1.07145,-0.51437 -0.841889,-0.52237 -1.000939,-0.65685 -1.138409,-0.96252 -0.252955,-0.56246 -0.52724,-0.7628 -1.094124,-0.79917 -0.567361,-0.0364 -0.932193,0.1425 -1.205797,0.59125 -0.363498,0.59618 -0.09674,1.47548 0.534591,1.76211 0.444557,0.20183 0.686523,0.20275 1.123554,0.004 l 0.345355,-0.15686 2.004145,1.23215 2.004145,1.23215 v 1.84165 1.84166 l 0.274608,-0.0788 c 0.411558,-0.11803 1.333524,-0.0949 1.805525,0.0452 0.229644,0.0682 0.642307,0.25935 0.91703,0.42478 0.274723,0.16543 0.508295,0.29061 0.519048,0.27817 0.08904,-0.10299 2.495123,-4.40246 2.495123,-4.45858 0,-0.0402 -0.120808,-0.1232 -0.268463,-0.18436 -0.464977,-0.1926 -1.230601,-1.02237 -1.526224,-1.6541 -0.680447,-1.45409 -0.260031,-3.2622 0.993548,-4.27302 1.79063,-1.44387 4.438984,-0.84824 5.461249,1.22828 0.248264,0.50429 0.290697,0.68497 0.320408,1.36429 0.02565,0.58651 -0.0025,0.89677 -0.112307,1.23628 -0.312012,0.96499 -1.01084,1.75949 -1.93017,2.19441 -0.850626,0.40242 -0.821375,0.43531 -0.821375,-0.92369 0,-1.08371 0.01344,-1.18437 0.178002,-1.3333 0.318117,-0.28789 0.436207,-0.62025 0.395366,-1.11273 -0.03214,-0.38758 -0.08491,-0.50481 -0.3437,-0.7636 -0.267138,-0.26714 -0.367723,-0.31007 -0.796865,-0.34011 -0.410966,-0.0288 -0.538103,-0.002 -0.778866,0.16362 -0.350374,0.2411 -0.60127,0.68932 -0.60127,1.07415 0,0.36914 0.287308,0.87733 0.600647,1.06243 l 0.24602,0.14532 -5.18e-4,2.42938 -5.17e-4,2.42938 -1.648774,1.00454 -1.648774,1.00454 0.289172,0.33783 c 0.414017,0.48369 0.720081,1.30885 0.781661,2.1074 l 0.05152,0.66803 h 0.693434 c 0.38139,0 1.552377,-0.025 2.602194,-0.0556 l 1.90876,-0.0555 0.03665,-0.69837 c 0.02999,-0.57147 0.08683,-0.80029 0.312798,-1.25929 1.076836,-2.18737 4.005494,-2.70275 5.711315,-1.00508 0.792088,0.7883 1.114455,1.63601 1.054746,2.77361 -0.06833,1.30196 -0.798234,2.39471 -1.994411,2.9859 -0.544863,0.26928 -0.727233,0.31551 -1.362332,0.34534 -0.836098,0.0393 -1.555422,-0.15057 -2.165569,-0.57149 -0.367926,-0.25382 -0.691964,-0.57615 -0.634446,-0.6311 0.01912,-0.0183 0.462276,-0.28122 0.984797,-0.58434 0.926554,-0.53751 0.962134,-0.55015 1.439334,-0.51131 0.833104,0.0678 1.370398,-0.35414 1.437139,-1.12863 0.06438,-0.74705 -0.390832,-1.29245 -1.132038,-1.35632 -0.738849,-0.0637 -1.38214,0.47844 -1.38214,1.16475 v 0.31887 l -1.970788,1.14569 c -1.083933,0.63013 -2.034905,1.1703 -2.113271,1.20037 -0.09264,0.0356 -0.723635,-0.25904 -1.803724,-0.84208 -0.913684,-0.49322 -1.67415,-0.89676 -1.689925,-0.89676 -0.01578,0 -0.09194,0.19045 -0.169249,0.42321 -0.259971,0.7827 -0.937382,1.54276 -1.746651,1.95976 l -0.222608,0.1147 1.205423,2.05062 c 0.662982,1.12784 1.258512,2.13058 1.323399,2.2283 l 0.117976,0.17768 0.380875,-0.21072 c 2.204653,-1.21976 4.926569,0.0813 5.323259,2.54455 0.312519,1.94057 -1.045875,3.77507 -3.032191,4.09495 -1.03298,0.16636 -2.231519,-0.23123 -2.993234,-0.99295 -0.805391,-0.80539 -1.125038,-1.65665 -1.053378,-2.80528 0.02439,-0.39102 0.07692,-0.74338 0.116721,-0.78302 0.03988,-0.0397 0.524129,0.18735 1.078841,0.50587 0.89493,0.51388 1.018518,0.61297 1.115138,0.89401 0.476027,1.38467 2.49272,1.10784 2.49272,-0.34218 0,-0.93277 -0.85365,-1.50533 -1.758983,-1.17978 l -0.407677,0.1466 -2.040362,-1.16645 c -2.370077,-1.35494 -2.140075,-1.03713 -2.142782,-2.96087 -9.17e-4,-0.65193 -0.02492,-1.37879 -0.05333,-1.61525 l -0.05166,-0.42991 -0.664596,0.0385 c -0.75278,0.0436 -1.274084,-0.0601 -1.918949,-0.38174 -0.244572,-0.12197 -0.458784,-0.20597 -0.476027,-0.18667 -0.06656,0.0745 -2.592962,4.38374 -2.592962,4.42275 0,0.0227 0.164116,0.13744 0.364703,0.25499 0.522359,0.30613 1.047506,0.91181 1.357034,1.56516 0.250378,0.52849 0.267929,0.62666 0.267929,1.49865 0,0.88513 -0.01441,0.96239 -0.280276,1.50244 -0.520595,1.05748 -1.479762,1.78928 -2.63148,2.00769 -0.520098,0.0986 -0.74625,0.0977 -1.270072,-0.005 z m 7.406198,-13.16777 c 0.400222,-0.18992 0.660528,-0.64292 0.660528,-1.14949 0,-0.46084 -0.17412,-0.75756 -0.62437,-1.064 -0.904856,-0.61584 -2.157089,0.32796 -1.86658,1.40683 0.09149,0.33978 0.429382,0.74319 0.722719,0.86286 0.280991,0.11463 0.803574,0.0881 1.107703,-0.0562 z m 53.769971,11.50454 c 0.58503,-1.20021 1.51067,-3.0966 2.05699,-4.2142 l 0.99329,-2.032 -2.35748,-4.6638 c -1.29661,-2.56508 -2.35747,-4.69008 -2.35747,-4.72221 0,-0.0321 0.63563,-0.048 1.41252,-0.0352 l 1.41251,0.0232 1.57199,3.23349 c 0.86459,1.77841 1.59375,3.25433 1.62036,3.27982 0.0266,0.0255 0.71583,-1.42957 1.53159,-3.23348 l 1.4832,-3.27983 1.36825,-0.0233 c 0.75253,-0.0128 1.36825,0.01 1.36825,0.0501 0,0.0404 -1.87737,4.05134 -4.17194,8.91326 l -4.17193,8.83986 -1.41191,0.0232 -1.41191,0.0232 z M 95.870546,94.38048 c -2.263661,-0.35141 -4.16054,-2.23653 -4.649768,-4.62094 -0.171699,-0.83683 -0.17136,-2.19243 7.42e-4,-2.97136 0.470727,-2.1305 2.192659,-3.94492 4.190827,-4.41591 0.69057,-0.16278 1.91296,-0.16425 2.596335,-0.003 1.880376,0.44335 3.521508,2.09556 4.079808,4.10738 0.37507,1.3515 0.29084,3.10866 -0.20782,4.33588 -0.65183,1.60417 -2.085712,2.93021 -3.68179,3.40492 -0.468432,0.13932 -1.855704,0.23653 -2.328334,0.16316 z m 2.204733,-2.67479 c 1.097465,-0.56597 1.732269,-1.80015 1.732269,-3.36789 0,-1.55344 -0.658643,-2.83971 -1.727417,-3.37348 -0.961483,-0.48018 -2.240418,-0.39034 -3.12687,0.21966 -0.844119,0.58087 -1.33753,1.73163 -1.334113,3.11149 0.0036,1.44829 0.4112,2.46626 1.246566,3.11318 0.586293,0.45404 1.01766,0.57226 1.978499,0.54224 0.669376,-0.0209 0.875934,-0.0621 1.231066,-0.2452 z m 34.701651,2.64897 c -2.02527,-0.32168 -3.54647,-1.78264 -4.10513,-3.94253 -0.24992,-0.96626 -0.30672,-2.56322 -0.12764,-3.58896 0.34044,-1.95008 1.33974,-3.42081 2.79264,-4.11012 0.74426,-0.35311 1.29731,-0.47161 2.19342,-0.47 1.88646,0.003 3.37812,0.8901 4.23248,2.51596 0.45919,0.87384 0.65795,1.7227 0.71408,3.04962 l 0.0474,1.12184 h -3.77967 c -3.24628,0 -3.77968,0.0173 -3.77968,0.12283 0,0.24799 0.19571,1.02532 0.34701,1.3783 0.22494,0.52475 0.85168,1.15642 1.37056,1.38132 0.31932,0.13841 0.60538,0.19134 1.0341,0.19134 1.06927,0 1.69671,-0.41762 2.48478,-1.65387 0.17007,-0.26679 0.34078,-0.48587 0.37935,-0.48683 0.0833,-0.002 1.74036,0.99444 1.91031,1.14884 0.099,0.0899 0.0421,0.22062 -0.35595,0.81894 -0.84718,1.27323 -1.88112,2.08947 -3.03258,2.39405 -0.57625,0.15242 -1.76405,0.21845 -2.32553,0.12927 z m 3.18329,-7.74551 c 0,-0.25981 -0.34811,-0.91004 -0.67991,-1.27 -0.45008,-0.48828 -0.95524,-0.68611 -1.73309,-0.67871 -1.10983,0.0106 -2.00778,0.72355 -2.36541,1.87819 l -0.059,0.1905 h 2.41871 c 2.03063,0 2.41871,-0.0192 2.41871,-0.11998 z m 9.60966,7.74504 c -1.25893,-0.20477 -2.25523,-0.70692 -3.11693,-1.57098 -1.17634,-1.17956 -1.66156,-2.34398 -1.72891,-4.14908 -0.0505,-1.35393 0.13159,-2.24247 0.67442,-3.29037 0.42369,-0.81791 1.53046,-1.99139 2.26642,-2.40302 1.51946,-0.84986 3.51475,-0.92224 5.1435,-0.18657 l 0.52917,0.23901 v 1.748 1.748 l -0.64043,-0.68077 c -0.85379,-0.90759 -1.32479,-1.14 -2.3229,-1.14619 -0.60219,-0.004 -0.79632,0.0312 -1.1892,0.21428 -1.16549,0.543 -1.87631,1.64043 -1.9995,3.08704 -0.10358,1.21631 0.25438,2.34299 0.9923,3.12323 0.72153,0.76291 1.6389,1.06822 2.65746,0.88441 0.85122,-0.1536 1.35115,-0.48096 2.08953,-1.36822 l 0.41274,-0.49595 v 1.74451 1.74451 l -0.52917,0.24629 c -0.98941,0.46049 -2.29027,0.66611 -3.2385,0.51187 z m 20.08421,-0.008 c -1.10902,-0.18646 -2.12912,-0.98396 -2.7147,-2.12232 l -0.31432,-0.61104 0.44707,-0.24724 c 0.72318,-0.39993 1.60574,-0.83902 1.6287,-0.8103 0.0117,0.0146 0.15568,0.23936 0.31996,0.4994 0.50204,0.79468 1.0176,1.06693 1.75568,0.92712 0.57649,-0.1092 0.84907,-0.45863 0.84907,-1.08848 0,-0.81015 -0.30731,-1.11767 -1.98655,-1.98788 -0.77155,-0.39983 -1.14794,-0.65661 -1.57971,-1.0777 -0.72129,-0.70347 -0.87159,-1.13587 -0.82221,-2.36531 0.0287,-0.71495 0.068,-0.89169 0.30497,-1.37312 0.32799,-0.66624 0.93575,-1.26197 1.6097,-1.57785 0.41933,-0.19654 0.59179,-0.22679 1.28847,-0.22597 0.65975,7.8e-4 0.88333,0.0365 1.24384,0.19878 0.53039,0.23874 1.27214,0.98842 1.58098,1.5979 l 0.21984,0.43382 -0.9691,0.55644 c -0.533,0.30605 -0.99898,0.55634 -1.0355,0.55622 -0.0365,-1.3e-4 -0.1426,-0.14182 -0.23573,-0.31488 -0.2058,-0.3824 -0.65689,-0.70089 -0.9927,-0.70089 -0.38054,0 -0.74297,0.40666 -0.74297,0.83366 0,0.51206 0.27038,0.75702 1.611,1.45956 2.10217,1.10162 2.73731,1.72824 2.96275,2.92302 0.39836,2.11126 -0.94717,4.13397 -3.0018,4.51253 -0.56073,0.10331 -0.83405,0.10418 -1.42674,0.005 z M 80.67288,84.95155 v -9.144 h 2.097721 c 2.135134,0 3.197771,0.081 3.955945,0.30165 1.109675,0.32291 2.173578,1.26135 2.745622,2.42185 0.429017,0.87035 0.595331,1.63478 0.597242,2.74513 0.0028,1.63821 -0.502983,2.91029 -1.553343,3.90661 -1.071667,1.01652 -2.030448,1.36476 -3.990854,1.44952 l -1.27,0.0549 -0.02206,3.70417 -0.02206,3.70416 h -1.26911 -1.26911 z m 4.596015,-0.97005 c 1.646521,-0.29353 2.416425,-1.28554 2.32906,-3.00096 -0.08946,-1.75646 -1.037919,-2.48573 -3.390242,-2.60673 l -0.994833,-0.0512 v 2.89112 2.89113 l 0.6985,-0.003 c 0.384175,-0.002 0.995056,-0.0558 1.357515,-0.12043 z m 19.618655,0.12339 v -9.99067 h 1.22767 1.22766 v 9.99067 9.99066 h -1.22766 -1.22767 z m 17.86467,5.46332 v -4.53199 h -0.508 -0.508 v -1.22344 -1.22344 l 0.48683,-0.0254 0.48683,-0.0254 0.0226,-2.0955 0.0226,-2.0955 h 1.22619 1.22619 v 2.11667 2.11667 h 0.93133 0.93134 v 1.22766 1.22767 h -0.9306 -0.93059 l -0.0219,4.5085 -0.0219,4.5085 -1.2065,0.0235 -1.2065,0.0235 z m 29.54866,-5.46332 v -9.99067 h 1.22711 1.2271 l 0.0217,6.05308 0.0217,6.05307 1.67527,-1.81974 1.67528,-1.81974 h 1.62217 1.62216 l -0.25318,0.27516 c -0.44419,0.48276 -3.26484,3.47291 -3.78229,4.00958 l -0.49856,0.51709 2.26363,3.08125 c 1.245,1.69469 2.35746,3.20508 2.47213,3.35642 l 0.20849,0.27516 -1.59755,-0.005 -1.59755,-0.005 -1.69333,-2.37402 c -0.93134,-1.30572 -1.72714,-2.39501 -1.76846,-2.42065 -0.0413,-0.0256 -0.14524,0.0446 -0.23095,0.15606 -0.1421,0.18482 -0.15599,0.39842 -0.15771,2.42517 l -0.002,2.2225 h -1.22767 -1.22767 z"
         id="path2" /><path
         style="fill:#020202"
         d="m 46.485116,102.92163 c -0.09379,-0.0815 -1.151602,-1.86266 -2.3507,-3.95816 -1.199099,-2.0955 -3.368329,-5.8674 -4.820512,-8.382 -1.452182,-2.5146 -2.687251,-4.6602 -2.744596,-4.76799 -0.0924,-0.1737 -0.06204,-0.27001 0.266921,-0.84667 1.353056,-2.37187 9.346813,-16.20471 9.513199,-16.46218 l 0.205187,-0.3175 h 3.202138 c 1.761176,0 6.28501,0.0253 10.052966,0.0563 l 6.850827,0.0563 0.563177,0.98091 c 3.133003,5.45689 6.087475,10.58773 7.577706,13.15972 0.994098,1.71571 1.807451,3.15054 1.807451,3.1885 0,0.038 -1.383549,2.46325 -3.074552,5.38952 -1.691004,2.92628 -3.947024,6.83498 -5.013379,8.686 l -1.938827,3.3655 H 56.61888 c -9.367396,0 -9.973439,-0.009 -10.133764,-0.14817 z m 19.434808,-1.22766 c 0.154304,-0.19339 9.105854,-15.68059 9.191203,-15.90183 0.07571,-0.19626 -0.321222,-0.91876 -4.093299,-7.45067 -2.297426,-3.97833 -4.389121,-7.60442 -4.64821,-8.05797 l -0.471072,-0.82463 -9.331267,-8.7e-4 -9.331267,-8.7e-4 -0.584841,0.99484 c -1.868069,3.17765 -8.681114,14.98646 -8.711382,15.09914 -0.01984,0.0739 1.590064,2.95042 3.577571,6.39233 1.987507,3.44192 4.076295,7.06615 4.641751,8.05386 l 1.028102,1.79582 9.324133,0.003 c 7.361054,0.003 9.341912,-0.0189 9.408578,-0.10249 z m 43.962956,-1.37257 c 0,-0.0238 0.91629,-1.92022 2.03621,-4.21427 l 2.0362,-4.171 -2.33254,-4.62336 c -1.28289,-2.54285 -2.33253,-4.64882 -2.33253,-4.67993 0,-0.0311 0.61725,-0.0461 1.37168,-0.0333 l 1.37169,0.0233 1.57332,3.23429 c 0.86533,1.77886 1.59248,3.25345 1.6159,3.27686 0.0234,0.0234 0.71181,-1.43202 1.52978,-3.23429 l 1.48721,-3.27686 1.36269,-0.0232 1.36269,-0.0232 -0.32918,0.70057 c -0.18104,0.38532 -2.064,4.37723 -4.18433,8.87091 l -3.85517,8.17033 -1.35681,0.0233 c -0.74624,0.0128 -1.35681,0.004 -1.35681,-0.02 z M 95.193213,94.19084 C 92.384512,93.38234 90.630972,90.24812 91.208,87.0678 c 0.230732,-1.27169 0.753116,-2.27017 1.67263,-3.19705 0.663047,-0.66836 1.255516,-1.04783 2.11492,-1.35461 0.542295,-0.19357 0.755124,-0.2219 1.67933,-0.22351 0.941229,-0.002 1.132923,0.0241 1.732438,0.23308 1.808382,0.63024 3.226602,2.2197 3.684372,4.12925 0.23287,0.9714 0.23371,2.42442 0.002,3.34146 -0.53512,2.11719 -2.125082,3.76335 -4.080006,4.22423 -0.731011,0.17233 -2.171015,0.15712 -2.820391,-0.0298 z m 2.914445,-2.48244 c 1.253082,-0.64058 1.901302,-2.16297 1.69693,-3.98537 -0.14932,-1.33149 -0.729212,-2.26128 -1.728775,-2.7719 -0.545866,-0.27885 -0.628027,-0.29615 -1.392677,-0.29329 -0.710976,0.003 -0.872963,0.0323 -1.29539,0.23707 -1.243937,0.60299 -1.948664,2.08753 -1.815203,3.82381 0.165971,2.15922 1.443765,3.41909 3.354105,3.30705 0.502811,-0.0295 0.745365,-0.0947 1.18101,-0.31737 z M 80.757546,84.93968 v -9.15546 l 2.391834,0.0493 c 2.706059,0.0558 3.324292,0.14372 4.264627,0.60658 1.239009,0.60987 2.260174,2.06022 2.54134,3.60944 0.150521,0.82937 0.108754,2.04685 -0.09689,2.82434 -0.46827,1.7704 -1.85855,3.11416 -3.682241,3.55902 -0.302683,0.0738 -1.093258,0.15724 -1.756833,0.18534 l -1.2065,0.0511 v 3.7129 3.71289 h -1.227667 -1.227667 z m 4.740188,-0.96715 c 0.682047,-0.16075 1.167669,-0.43992 1.557523,-0.89538 0.50055,-0.58478 0.721278,-1.55622 0.558086,-2.45617 -0.284905,-1.57115 -1.370408,-2.26948 -3.53263,-2.27259 l -0.867833,-10e-4 v 2.87867 2.87867 l 0.867833,-0.001 c 0.478033,-6.9e-4 1.114509,-0.0594 1.417021,-0.13069 z m 19.448546,10.06844 c -0.0323,-0.0323 -0.0587,-4.52913 -0.0587,-9.99295 V 74.1138 h 1.22801 1.22802 l -0.0215,9.9695 -0.0215,9.9695 -1.14777,0.0235 c -0.63128,0.0129 -1.1742,-0.003 -1.2065,-0.0353 z"
         id="path1" /></g></g></svg>
